# xmcd
#
# Track frame offsets:
#  150
#  26656
#  44884
#  59222
#  81696
#  93178
#  113879
#  144932
#  154163
#
# Disc length: 2473 seconds
#
# Revision: 0
# Processed by: cddbd v1.4PL0 Copyright (c) Steve Scherf et al.
# Submitted via: AlterCode_WhopSee 2.7
#
DISCID=8209a709
DTITLE=Entrance - The Kingdom of Heaven must be taken by storm!
DYEAR=1900
DGENRE=
TTITLE0=Valium Blues
TTITLE1=I'm so glad
TTITLE2=The Night was dark
TTITLE3=Never afraid
TTITLE4=Stranded in a clearing
TTITLE5=Tommy Thumb's Summertime Blues
TTITLE6=Mirror - Mantra
TTITLE7=I Love the Light
TTITLE8=A Farewell to My Friends
EXTD=
EXTT0=
EXTT1=
EXTT2=
EXTT3=
EXTT4=
EXTT5=
EXTT6=
EXTT7=
EXTT8=
PLAYORDER=
